<svg width="160" height="40" viewBox="0 0 160 40" fill="none" xmlns="http://www.w3.org/2000/svg">
<rect y="8" width="24" height="24" rx="12" fill="#B2B2B2"/>
<path d="M17.2229 21.9801C17.0473 21.8418 15.4969 20.1345 14.6189 19.3387C14.6152 19.335 14.6152 19.335 14.6152 19.3313V15.655C14.6152 14.7435 13.8717 14 12.9601 14H7.53923C6.69116 14 6 14.6949 6 15.5392V24.1619C6 25.0735 6.74346 25.8169 7.65504 25.8169H9.23163H9.63138C9.69863 25.8169 9.75467 25.7572 9.7472 25.6899L9.66127 24.9577C9.6538 24.8979 9.60523 24.8568 9.54545 24.8568H9.39975H9.31009C9.24658 24.8568 9.19427 24.8045 9.19427 24.741V14.9452C9.19427 14.8817 9.24658 14.8294 9.31009 14.8294H12.9714C13.3412 14.8294 13.6438 15.132 13.6438 15.5019V23.5044V24.2927C13.6438 24.5467 13.4682 24.7634 13.2329 24.8306C13.2291 24.8306 13.2291 24.8306 13.2254 24.8306C12.8257 24.6139 12.3549 23.6874 12.2839 23.5417C12.2765 23.5305 12.2727 23.5156 12.2727 23.5044C12.2466 23.269 11.9813 20.99 10.7671 20.99C10.7335 20.99 10.6999 20.99 10.6663 20.9938C10.6663 20.9938 9.69489 21.076 10.4981 23.8443C10.4981 23.8518 10.5019 23.8555 10.5019 23.863L10.8568 26.9303C10.8568 26.934 10.8568 26.9377 10.8605 26.9452C10.8904 27.061 11.2939 28.6264 12.3362 29.736C12.3549 29.7584 12.3661 29.7846 12.3661 29.8144V30.0797C12.3661 30.0872 12.3624 30.0909 12.3549 30.0909H12.2615C12.0336 30.0909 11.8468 30.2777 11.8468 30.5056V31.5853C11.8468 31.8132 12.0336 32 12.2615 32H16.6588C16.8867 32 17.0735 31.8132 17.0735 31.5853V30.5131C17.0735 30.2852 16.8867 30.0984 16.6588 30.0984C16.6513 30.0984 16.6476 30.0946 16.6476 30.0872C16.7933 28.7347 17.3163 24.1096 17.5965 23.7472C17.604 23.736 17.6115 23.7248 17.6152 23.7098C17.6638 23.5417 17.9066 22.5143 17.2229 21.9801ZM7.72976 24.7484C7.72976 24.8082 7.6812 24.8531 7.62516 24.8531C7.25903 24.8531 6.96015 24.5542 6.96015 24.188V15.4944C6.96015 15.1283 7.25903 14.8294 7.62516 14.8294C7.68493 14.8294 7.72976 14.878 7.72976 14.934V24.7484Z" fill="white"/>
<path d="M38.6719 5.4929C38.6188 5.02225 38.4001 4.65767 38.0156 4.39915C37.6312 4.13731 37.1473 4.00639 36.5639 4.00639C36.1463 4.00639 35.785 4.07268 35.4801 4.20526C35.1752 4.33452 34.9382 4.51349 34.7692 4.74219C34.6035 4.96757 34.5206 5.22443 34.5206 5.51278C34.5206 5.75473 34.5769 5.96354 34.6896 6.1392C34.8056 6.31487 34.9564 6.46236 35.142 6.58168C35.331 6.69768 35.5331 6.79545 35.7486 6.875C35.964 6.95123 36.1712 7.0142 36.37 7.06392L37.3643 7.32244C37.6892 7.40199 38.0223 7.50971 38.3636 7.6456C38.705 7.78149 39.0215 7.96046 39.3132 8.18253C39.6049 8.40459 39.8402 8.67969 40.0192 9.00781C40.2015 9.33594 40.2926 9.72869 40.2926 10.1861C40.2926 10.7628 40.1435 11.2749 39.8452 11.7223C39.5502 12.1697 39.121 12.5227 38.5575 12.7812C37.9974 13.0398 37.3196 13.169 36.5241 13.169C35.7618 13.169 35.1023 13.0481 34.5455 12.8061C33.9886 12.5642 33.5528 12.2211 33.2379 11.777C32.9231 11.3295 32.7491 10.7992 32.7159 10.1861H34.2571C34.2869 10.554 34.4063 10.8606 34.6151 11.1058C34.8272 11.3478 35.0973 11.5284 35.4254 11.6477C35.7569 11.7637 36.1198 11.8217 36.5142 11.8217C36.9484 11.8217 37.3345 11.7538 37.6726 11.6179C38.014 11.4787 38.2824 11.2865 38.478 11.0412C38.6735 10.7926 38.7713 10.5026 38.7713 10.1712C38.7713 9.86955 38.6851 9.62263 38.5128 9.4304C38.3438 9.23816 38.1134 9.07907 37.8217 8.95312C37.5334 8.82718 37.2069 8.71615 36.8423 8.62003L35.6392 8.2919C34.8239 8.06984 34.1776 7.74337 33.7003 7.3125C33.2263 6.88163 32.9893 6.31155 32.9893 5.60227C32.9893 5.01562 33.1484 4.50355 33.4666 4.06605C33.7848 3.62855 34.2157 3.28883 34.7592 3.04688C35.3028 2.80161 35.916 2.67898 36.5987 2.67898C37.2881 2.67898 37.8963 2.79995 38.4233 3.0419C38.9536 3.28385 39.3712 3.61695 39.6761 4.04119C39.9811 4.46212 40.1402 4.94602 40.1534 5.4929H38.6719ZM45.9937 5.36364V6.55682H41.8225V5.36364H45.9937ZM42.9411 3.53409H44.4276V10.7578C44.4276 11.0462 44.4707 11.2633 44.5569 11.4091C44.6431 11.5516 44.7541 11.6494 44.89 11.7024C45.0292 11.7521 45.18 11.777 45.3424 11.777C45.4617 11.777 45.5661 11.7687 45.6556 11.7521C45.7451 11.7356 45.8147 11.7223 45.8644 11.7124L46.1329 12.9403C46.0467 12.9735 45.9241 13.0066 45.765 13.0398C45.6059 13.0762 45.407 13.0961 45.1684 13.0994C44.7773 13.1061 44.4127 13.0365 44.0747 12.8906C43.7366 12.7448 43.4631 12.5194 43.2543 12.2145C43.0455 11.9096 42.9411 11.5268 42.9411 11.0661V3.53409ZM51.2672 13.1541C50.5148 13.1541 49.8669 12.9934 49.3233 12.6719C48.7831 12.3471 48.3654 11.8913 48.0705 11.3047C47.7788 10.7147 47.633 10.0237 47.633 9.23153C47.633 8.44934 47.7788 7.75994 48.0705 7.16335C48.3654 6.56676 48.7764 6.10109 49.3034 5.76633C49.8337 5.43158 50.4535 5.2642 51.1628 5.2642C51.5937 5.2642 52.0113 5.33546 52.4156 5.47798C52.82 5.6205 53.1829 5.84422 53.5044 6.14915C53.8259 6.45407 54.0795 6.85014 54.2651 7.33736C54.4507 7.82126 54.5435 8.40956 54.5435 9.10227V9.62926H48.4732V8.51562H53.0868C53.0868 8.12453 53.0073 7.77817 52.8482 7.47656C52.6891 7.17164 52.4654 6.93134 52.177 6.75568C51.892 6.58002 51.5572 6.49219 51.1727 6.49219C50.7551 6.49219 50.3905 6.59493 50.079 6.80043C49.7708 7.0026 49.5321 7.26776 49.3631 7.59588C49.1974 7.92069 49.1145 8.27367 49.1145 8.65483V9.52486C49.1145 10.0353 49.204 10.4695 49.383 10.8274C49.5653 11.1854 49.8188 11.4588 50.1436 11.6477C50.4684 11.8333 50.8479 11.9261 51.2821 11.9261C51.5638 11.9261 51.8207 11.8864 52.0527 11.8068C52.2847 11.724 52.4852 11.6013 52.6543 11.4389C52.8233 11.2765 52.9526 11.076 53.0421 10.8374L54.449 11.0909C54.3363 11.5052 54.1342 11.8681 53.8425 12.1797C53.5541 12.4879 53.1912 12.7282 52.7537 12.9006C52.3195 13.0696 51.824 13.1541 51.2672 13.1541ZM56.6128 15.8636V5.36364H58.0645V6.60156H58.1888C58.275 6.44247 58.3993 6.25852 58.5617 6.04972C58.7241 5.84091 58.9495 5.65862 59.2378 5.50284C59.5262 5.34375 59.9073 5.2642 60.3813 5.2642C60.9977 5.2642 61.5479 5.41998 62.0318 5.73153C62.5157 6.04309 62.8952 6.49219 63.1703 7.07884C63.4487 7.66548 63.5879 8.37145 63.5879 9.19673C63.5879 10.022 63.4504 10.7296 63.1753 11.3196C62.9002 11.9062 62.5224 12.3587 62.0418 12.6768C61.5612 12.9917 61.0127 13.1491 60.3962 13.1491C59.9322 13.1491 59.5527 13.0713 59.2577 12.9155C58.966 12.7597 58.7373 12.5774 58.5716 12.3686C58.4059 12.1598 58.2783 11.9742 58.1888 11.8118H58.0993V15.8636H56.6128ZM58.0695 9.18182C58.0695 9.71875 58.1474 10.1894 58.3031 10.5938C58.4589 10.9981 58.6843 11.3146 58.9793 11.5433C59.2743 11.7687 59.6355 11.8814 60.0631 11.8814C60.5072 11.8814 60.8784 11.7637 61.1767 11.5284C61.475 11.2898 61.7004 10.9666 61.8529 10.5589C62.0086 10.1513 62.0865 9.69223 62.0865 9.18182C62.0865 8.67803 62.0103 8.22562 61.8578 7.82457C61.7087 7.42353 61.4833 7.10701 61.1817 6.875C60.8834 6.64299 60.5105 6.52699 60.0631 6.52699C59.6322 6.52699 59.2676 6.63802 58.9693 6.86009C58.6744 7.08215 58.4506 7.39205 58.2982 7.78977C58.1457 8.1875 58.0695 8.65151 58.0695 9.18182ZM73.3234 13.1392C72.6406 13.1392 72.0308 13.0215 71.4938 12.7862C70.9602 12.5509 70.5376 12.2244 70.2261 11.8068C69.9178 11.3859 69.7521 10.8987 69.7289 10.3452H71.29C71.3099 10.6468 71.411 10.9086 71.5933 11.1307C71.7789 11.3494 72.0208 11.5185 72.3191 11.6378C72.6174 11.7571 72.9488 11.8168 73.3134 11.8168C73.7145 11.8168 74.0691 11.7472 74.3773 11.608C74.6889 11.4687 74.9325 11.2749 75.1082 11.0263C75.2838 10.7744 75.3717 10.4844 75.3717 10.1562C75.3717 9.81487 75.2838 9.51491 75.1082 9.25639C74.9358 8.99455 74.6823 8.78906 74.3475 8.63991C74.0161 8.49077 73.615 8.41619 73.1444 8.41619H72.2843V7.16335H73.1444C73.5222 7.16335 73.8537 7.09541 74.1387 6.95952C74.4271 6.82363 74.6524 6.63471 74.8148 6.39276C74.9772 6.14749 75.0585 5.8608 75.0585 5.53267C75.0585 5.2178 74.9872 4.94437 74.8447 4.71236C74.7055 4.47704 74.5066 4.29309 74.2481 4.16051C73.9929 4.02794 73.6913 3.96165 73.3433 3.96165C73.0118 3.96165 72.7019 4.02296 72.4136 4.1456C72.1285 4.26491 71.8965 4.43726 71.7175 4.66264C71.5386 4.88471 71.4424 5.15151 71.4292 5.46307H69.9427C69.9593 4.91288 70.1217 4.42898 70.4299 4.01136C70.7415 3.59375 71.1524 3.26728 71.6629 3.03196C72.1733 2.79664 72.74 2.67898 73.3631 2.67898C74.0161 2.67898 74.5795 2.80658 75.0535 3.06179C75.5308 3.31368 75.8986 3.65009 76.1572 4.07102C76.419 4.49195 76.5483 4.95265 76.545 5.45312C76.5483 6.0232 76.3892 6.5071 76.0677 6.90483C75.7495 7.30256 75.3253 7.56937 74.795 7.70526V7.7848C75.4711 7.88755 75.9948 8.15601 76.366 8.5902C76.7405 9.02438 76.9261 9.56297 76.9228 10.206C76.9261 10.7661 76.7703 11.2682 76.4555 11.7124C76.1439 12.1565 75.718 12.5062 75.1778 12.7614C74.6375 13.0133 74.0194 13.1392 73.3234 13.1392Z" fill="#B2B2B2"/>
<path d="M33.5181 35V21.1818H38.4435C39.5186 21.1818 40.4092 21.3775 41.1154 21.7688C41.8216 22.1602 42.3501 22.6954 42.701 23.3746C43.0518 24.0494 43.2273 24.8095 43.2273 25.6552C43.2273 26.5053 43.0496 27.27 42.6942 27.9492C42.3434 28.6239 41.8126 29.1592 41.1019 29.555C40.3957 29.9464 39.5073 30.142 38.4368 30.142H35.0497V28.3743H38.2479C38.9271 28.3743 39.4781 28.2573 39.9009 28.0234C40.3237 27.785 40.6341 27.4612 40.832 27.0518C41.0299 26.6425 41.1289 26.177 41.1289 25.6552C41.1289 25.1334 41.0299 24.6701 40.832 24.2653C40.6341 23.8604 40.3215 23.5433 39.8942 23.3139C39.4714 23.0845 38.9136 22.9698 38.2209 22.9698H35.603V35H33.5181ZM49.0027 35.2294C48.346 35.2294 47.7522 35.108 47.2215 34.8651C46.6907 34.6177 46.2701 34.2601 45.9597 33.7923C45.6539 33.3245 45.5009 32.7509 45.5009 32.0717C45.5009 31.487 45.6134 31.0057 45.8383 30.6278C46.0632 30.25 46.3668 29.9509 46.7492 29.7305C47.1315 29.5101 47.5588 29.3436 48.0311 29.2312C48.5034 29.1187 48.9847 29.0333 49.475 28.9748C50.0957 28.9028 50.5995 28.8443 50.9864 28.7994C51.3732 28.7499 51.6543 28.6712 51.8298 28.5632C52.0052 28.4553 52.0929 28.2798 52.0929 28.0369V27.9897C52.0929 27.4004 51.9265 26.9439 51.5936 26.62C51.2653 26.2962 50.775 26.1342 50.1227 26.1342C49.4435 26.1342 48.9082 26.2849 48.5169 26.5863C48.1301 26.8832 47.8624 27.2138 47.714 27.5781L45.818 27.1463C46.043 26.5166 46.3713 26.0083 46.8031 25.6214C47.2394 25.2301 47.741 24.9467 48.3077 24.7713C48.8745 24.5914 49.4705 24.5014 50.0957 24.5014C50.5096 24.5014 50.9481 24.5509 51.4114 24.6499C51.8792 24.7443 52.3156 24.9197 52.7204 25.1761C53.1297 25.4325 53.4648 25.7991 53.7257 26.2759C53.9866 26.7482 54.1171 27.3622 54.1171 28.1179V35H52.1469V33.5831H52.0659C51.9355 33.844 51.7398 34.1004 51.4789 34.3523C51.218 34.6042 50.8829 34.8133 50.4736 34.9798C50.0643 35.1462 49.574 35.2294 49.0027 35.2294ZM49.4413 33.6101C49.999 33.6101 50.4758 33.4999 50.8717 33.2795C51.272 33.0591 51.5756 32.7712 51.7825 32.4158C51.9939 32.056 52.0997 31.6714 52.0997 31.2621V29.9261C52.0277 29.9981 51.8882 30.0656 51.6813 30.1286C51.4789 30.187 51.2473 30.2388 50.9864 30.2837C50.7255 30.3242 50.4713 30.3625 50.2239 30.3984C49.9765 30.4299 49.7696 30.4569 49.6032 30.4794C49.2119 30.5289 48.8543 30.6121 48.5304 30.729C48.211 30.846 47.9546 31.0147 47.7612 31.2351C47.5723 31.451 47.4778 31.7389 47.4778 32.0987C47.4778 32.598 47.6623 32.9759 48.0311 33.2322C48.4 33.4841 48.87 33.6101 49.4413 33.6101ZM58.2782 38.8864C57.9769 38.8864 57.7025 38.8616 57.4551 38.8121C57.2077 38.7672 57.0233 38.7177 56.9018 38.6637L57.3876 37.0107C57.7564 37.1096 58.0848 37.1523 58.3727 37.1388C58.6606 37.1254 58.9147 37.0174 59.1351 36.815C59.36 36.6126 59.5579 36.282 59.7289 35.8232L59.9785 35.1349L56.1866 24.6364H58.3457L60.9703 32.679H61.0783L63.7029 24.6364H65.8688L61.5978 36.3832C61.3999 36.9229 61.148 37.3795 60.8421 37.7528C60.5363 38.1307 60.1719 38.4141 59.7491 38.603C59.3263 38.7919 58.836 38.8864 58.2782 38.8864ZM68.3347 35V24.6364H70.2712V26.3232H70.3994C70.6153 25.7519 70.9684 25.3066 71.4587 24.9872C71.949 24.6634 72.536 24.5014 73.2197 24.5014C73.9124 24.5014 74.4926 24.6634 74.9604 24.9872C75.4327 25.3111 75.7813 25.7564 76.0063 26.3232H76.1142C76.3616 25.7699 76.7552 25.3291 77.295 25.0007C77.8347 24.6679 78.478 24.5014 79.2246 24.5014C80.1648 24.5014 80.9317 24.796 81.5254 25.3853C82.1237 25.9745 82.4228 26.8629 82.4228 28.0504V35H80.4054V28.2393C80.4054 27.5376 80.2142 27.0294 79.8319 26.7145C79.4496 26.3996 78.993 26.2422 78.4622 26.2422C77.8055 26.2422 77.295 26.4446 76.9306 26.8494C76.5663 27.2498 76.3841 27.7648 76.3841 28.3945V35H74.3734V28.1112C74.3734 27.5489 74.198 27.0968 73.8472 26.755C73.4963 26.4131 73.0398 26.2422 72.4775 26.2422C72.0951 26.2422 71.742 26.3434 71.4182 26.5458C71.0988 26.7437 70.8402 27.0204 70.6423 27.3757C70.4488 27.7311 70.3521 28.1426 70.3521 28.6104V35H68.3347ZM90.1633 35.2092C89.1423 35.2092 88.2629 34.991 87.5252 34.5547C86.792 34.1139 86.2253 33.4954 85.8249 32.6992C85.4291 31.8986 85.2312 30.9607 85.2312 29.8857C85.2312 28.8241 85.4291 27.8885 85.8249 27.0788C86.2253 26.2692 86.783 25.6372 87.4982 25.1829C88.2179 24.7286 89.0591 24.5014 90.0217 24.5014C90.6064 24.5014 91.1732 24.5981 91.7219 24.7915C92.2707 24.985 92.7632 25.2886 93.1996 25.7024C93.6359 26.1162 93.98 26.6538 94.2319 27.315C94.4838 27.9717 94.6097 28.7701 94.6097 29.7102V30.4254H86.3714V28.9141H92.6328C92.6328 28.3833 92.5249 27.9132 92.3089 27.5039C92.093 27.0901 91.7894 26.764 91.3981 26.5256C91.0112 26.2872 90.5569 26.168 90.0351 26.168C89.4684 26.168 88.9736 26.3074 88.5508 26.5863C88.1324 26.8607 87.8086 27.2205 87.5792 27.6658C87.3543 28.1067 87.2418 28.5857 87.2418 29.103V30.2837C87.2418 30.9764 87.3633 31.5657 87.6062 32.0515C87.8536 32.5373 88.1977 32.9084 88.6385 33.1648C89.0793 33.4167 89.5943 33.5426 90.1836 33.5426C90.5659 33.5426 90.9145 33.4886 91.2294 33.3807C91.5443 33.2682 91.8164 33.1018 92.0458 32.8814C92.2752 32.661 92.4506 32.3888 92.5721 32.065L94.4815 32.4091C94.3286 32.9714 94.0542 33.4639 93.6584 33.8867C93.267 34.305 92.7745 34.6312 92.1807 34.8651C91.5915 35.0945 90.919 35.2092 90.1633 35.2092ZM99.4355 28.8466V35H97.4181V24.6364H99.3545V26.3232H99.4827C99.7211 25.7744 100.094 25.3336 100.603 25.0007C101.116 24.6679 101.761 24.5014 102.539 24.5014C103.245 24.5014 103.864 24.6499 104.395 24.9467C104.925 25.2391 105.337 25.6754 105.629 26.2557C105.922 26.8359 106.068 27.5534 106.068 28.408V35H104.051V28.6509C104.051 27.8997 103.855 27.3127 103.464 26.8899C103.072 26.4626 102.535 26.2489 101.851 26.2489C101.383 26.2489 100.967 26.3501 100.603 26.5526C100.243 26.755 99.9573 27.0518 99.7459 27.4432C99.5389 27.83 99.4355 28.2978 99.4355 28.8466ZM114.181 24.6364V26.2557H108.52V24.6364H114.181ZM110.039 22.1534H112.056V31.957C112.056 32.3484 112.114 32.643 112.231 32.8409C112.348 33.0343 112.499 33.167 112.683 33.239C112.872 33.3065 113.077 33.3402 113.297 33.3402C113.459 33.3402 113.601 33.329 113.722 33.3065C113.844 33.284 113.938 33.266 114.006 33.2525L114.37 34.919C114.253 34.964 114.087 35.009 113.871 35.054C113.655 35.1035 113.385 35.1304 113.061 35.1349C112.53 35.1439 112.036 35.0495 111.577 34.8516C111.118 34.6536 110.747 34.3478 110.464 33.9339C110.18 33.5201 110.039 33.0006 110.039 32.3754V22.1534Z" fill="#B2B2B2"/>
</svg>
