<svg width="160" height="40" viewBox="0 0 160 40" fill="none" xmlns="http://www.w3.org/2000/svg">
<rect y="8" width="24" height="24" rx="12" fill="black"/>
<path d="M11.2778 24.6127C11.0212 24.3697 10.722 24.1829 10.3952 24.0665L9.71006 21.3986L17.8697 19.1159L18.7438 22.5224L11.2778 24.6127ZM8.68012 17.3879L14.1201 15.8664L14.9948 19.274L9.55537 20.7956L8.68012 17.3879ZM8.92425 24.0153C8.77237 24.0581 8.63119 24.1188 8.49394 24.1858L6.09544 14.8398H5.19319C5.10263 15.0372 4.91306 15.1762 4.68919 15.1762H3.56306C3.252 15.1762 3 14.9124 3 14.5878C3 14.2632 3.252 14 3.56306 14H4.68919C4.87819 14 5.03681 14.1035 5.13919 14.2514H6.87169V14.2801L6.89756 14.2722L9.37819 23.9377C9.22688 23.9517 9.07556 23.9737 8.92425 24.0153ZM9.06994 24.5834C10.1213 24.2893 11.2018 24.9406 11.4836 26.0392C11.7654 27.1366 11.1416 28.265 10.0898 28.5592C9.03844 28.8523 7.95787 28.2009 7.67606 27.1034C7.39425 26.006 8.01863 24.8776 9.06994 24.5834ZM8.7735 26.8351C8.89388 27.3054 9.35738 27.5844 9.80794 27.4578C10.2585 27.3312 10.5257 26.8481 10.4053 26.3778C10.2849 25.9076 9.82144 25.6286 9.37088 25.754C8.91975 25.8806 8.65256 26.3643 8.7735 26.8351ZM18.6735 24.5216L12.1012 26.3598C12.0894 26.2029 12.0675 26.0443 12.027 25.8862C11.9871 25.7281 11.9291 25.5796 11.8644 25.4367L18.4024 23.6086L18.6735 24.5216Z" fill="white"/>
<path d="M38.6719 5.4929C38.6188 5.02225 38.4001 4.65767 38.0156 4.39915C37.6312 4.13731 37.1473 4.00639 36.5639 4.00639C36.1463 4.00639 35.785 4.07268 35.4801 4.20526C35.1752 4.33452 34.9382 4.51349 34.7692 4.74219C34.6035 4.96757 34.5206 5.22443 34.5206 5.51278C34.5206 5.75473 34.5769 5.96354 34.6896 6.1392C34.8056 6.31487 34.9564 6.46236 35.142 6.58168C35.331 6.69768 35.5331 6.79545 35.7486 6.875C35.964 6.95123 36.1712 7.0142 36.37 7.06392L37.3643 7.32244C37.6892 7.40199 38.0223 7.50971 38.3636 7.6456C38.705 7.78149 39.0215 7.96046 39.3132 8.18253C39.6049 8.40459 39.8402 8.67969 40.0192 9.00781C40.2015 9.33594 40.2926 9.72869 40.2926 10.1861C40.2926 10.7628 40.1435 11.2749 39.8452 11.7223C39.5502 12.1697 39.121 12.5227 38.5575 12.7812C37.9974 13.0398 37.3196 13.169 36.5241 13.169C35.7618 13.169 35.1023 13.0481 34.5455 12.8061C33.9886 12.5642 33.5528 12.2211 33.2379 11.777C32.9231 11.3295 32.7491 10.7992 32.7159 10.1861H34.2571C34.2869 10.554 34.4063 10.8606 34.6151 11.1058C34.8272 11.3478 35.0973 11.5284 35.4254 11.6477C35.7569 11.7637 36.1198 11.8217 36.5142 11.8217C36.9484 11.8217 37.3345 11.7538 37.6726 11.6179C38.014 11.4787 38.2824 11.2865 38.478 11.0412C38.6735 10.7926 38.7713 10.5026 38.7713 10.1712C38.7713 9.86955 38.6851 9.62263 38.5128 9.4304C38.3438 9.23816 38.1134 9.07907 37.8217 8.95312C37.5334 8.82718 37.2069 8.71615 36.8423 8.62003L35.6392 8.2919C34.8239 8.06984 34.1776 7.74337 33.7003 7.3125C33.2263 6.88163 32.9893 6.31155 32.9893 5.60227C32.9893 5.01562 33.1484 4.50355 33.4666 4.06605C33.7848 3.62855 34.2157 3.28883 34.7592 3.04688C35.3028 2.80161 35.916 2.67898 36.5987 2.67898C37.2881 2.67898 37.8963 2.79995 38.4233 3.0419C38.9536 3.28385 39.3712 3.61695 39.6761 4.04119C39.9811 4.46212 40.1402 4.94602 40.1534 5.4929H38.6719ZM45.9937 5.36364V6.55682H41.8225V5.36364H45.9937ZM42.9411 3.53409H44.4276V10.7578C44.4276 11.0462 44.4707 11.2633 44.5569 11.4091C44.6431 11.5516 44.7541 11.6494 44.89 11.7024C45.0292 11.7521 45.18 11.777 45.3424 11.777C45.4617 11.777 45.5661 11.7687 45.6556 11.7521C45.7451 11.7356 45.8147 11.7223 45.8644 11.7124L46.1329 12.9403C46.0467 12.9735 45.9241 13.0066 45.765 13.0398C45.6059 13.0762 45.407 13.0961 45.1684 13.0994C44.7773 13.1061 44.4127 13.0365 44.0747 12.8906C43.7366 12.7448 43.4631 12.5194 43.2543 12.2145C43.0455 11.9096 42.9411 11.5268 42.9411 11.0661V3.53409ZM51.2672 13.1541C50.5148 13.1541 49.8669 12.9934 49.3233 12.6719C48.7831 12.3471 48.3654 11.8913 48.0705 11.3047C47.7788 10.7147 47.633 10.0237 47.633 9.23153C47.633 8.44934 47.7788 7.75994 48.0705 7.16335C48.3654 6.56676 48.7764 6.10109 49.3034 5.76633C49.8337 5.43158 50.4535 5.2642 51.1628 5.2642C51.5937 5.2642 52.0113 5.33546 52.4156 5.47798C52.82 5.6205 53.1829 5.84422 53.5044 6.14915C53.8259 6.45407 54.0795 6.85014 54.2651 7.33736C54.4507 7.82126 54.5435 8.40956 54.5435 9.10227V9.62926H48.4732V8.51562H53.0868C53.0868 8.12453 53.0073 7.77817 52.8482 7.47656C52.6891 7.17164 52.4654 6.93134 52.177 6.75568C51.892 6.58002 51.5572 6.49219 51.1727 6.49219C50.7551 6.49219 50.3905 6.59493 50.079 6.80043C49.7708 7.0026 49.5321 7.26776 49.3631 7.59588C49.1974 7.92069 49.1145 8.27367 49.1145 8.65483V9.52486C49.1145 10.0353 49.204 10.4695 49.383 10.8274C49.5653 11.1854 49.8188 11.4588 50.1436 11.6477C50.4684 11.8333 50.8479 11.9261 51.2821 11.9261C51.5638 11.9261 51.8207 11.8864 52.0527 11.8068C52.2847 11.724 52.4852 11.6013 52.6543 11.4389C52.8233 11.2765 52.9526 11.076 53.0421 10.8374L54.449 11.0909C54.3363 11.5052 54.1342 11.8681 53.8425 12.1797C53.5541 12.4879 53.1912 12.7282 52.7537 12.9006C52.3195 13.0696 51.824 13.1541 51.2672 13.1541ZM56.6128 15.8636V5.36364H58.0645V6.60156H58.1888C58.275 6.44247 58.3993 6.25852 58.5617 6.04972C58.7241 5.84091 58.9495 5.65862 59.2378 5.50284C59.5262 5.34375 59.9073 5.2642 60.3813 5.2642C60.9977 5.2642 61.5479 5.41998 62.0318 5.73153C62.5157 6.04309 62.8952 6.49219 63.1703 7.07884C63.4487 7.66548 63.5879 8.37145 63.5879 9.19673C63.5879 10.022 63.4504 10.7296 63.1753 11.3196C62.9002 11.9062 62.5224 12.3587 62.0418 12.6768C61.5612 12.9917 61.0127 13.1491 60.3962 13.1491C59.9322 13.1491 59.5527 13.0713 59.2577 12.9155C58.966 12.7597 58.7373 12.5774 58.5716 12.3686C58.4059 12.1598 58.2783 11.9742 58.1888 11.8118H58.0993V15.8636H56.6128ZM58.0695 9.18182C58.0695 9.71875 58.1474 10.1894 58.3031 10.5938C58.4589 10.9981 58.6843 11.3146 58.9793 11.5433C59.2743 11.7687 59.6355 11.8814 60.0631 11.8814C60.5072 11.8814 60.8784 11.7637 61.1767 11.5284C61.475 11.2898 61.7004 10.9666 61.8529 10.5589C62.0086 10.1513 62.0865 9.69223 62.0865 9.18182C62.0865 8.67803 62.0103 8.22562 61.8578 7.82457C61.7087 7.42353 61.4833 7.10701 61.1817 6.875C60.8834 6.64299 60.5105 6.52699 60.0631 6.52699C59.6322 6.52699 59.2676 6.63802 58.9693 6.86009C58.6744 7.08215 58.4506 7.39205 58.2982 7.78977C58.1457 8.1875 58.0695 8.65151 58.0695 9.18182ZM69.7786 13V11.8864L73.2239 8.31676C73.5918 7.92898 73.8951 7.58925 74.1337 7.29759C74.3757 7.0026 74.5563 6.72254 74.6756 6.45739C74.795 6.19223 74.8546 5.91051 74.8546 5.61222C74.8546 5.27415 74.7751 4.98248 74.616 4.73722C74.4569 4.48864 74.2398 4.29806 73.9647 4.16548C73.6896 4.02959 73.3797 3.96165 73.035 3.96165C72.6704 3.96165 72.3522 4.03622 72.0805 4.18537C71.8087 4.33452 71.5999 4.54498 71.454 4.81676C71.3082 5.08854 71.2353 5.40672 71.2353 5.77131H69.7687C69.7687 5.15151 69.9112 4.60961 70.1962 4.1456C70.4813 3.68158 70.8724 3.32197 71.3695 3.06676C71.8667 2.80824 72.4318 2.67898 73.0648 2.67898C73.7045 2.67898 74.268 2.80658 74.7552 3.06179C75.2457 3.31368 75.6285 3.65838 75.9036 4.09588C76.1787 4.53007 76.3163 5.0206 76.3163 5.56747C76.3163 5.94531 76.245 6.31487 76.1025 6.67614C75.9633 7.0374 75.7197 7.4401 75.3717 7.88423C75.0236 8.32505 74.5397 8.86032 73.92 9.49006L71.8965 11.608V11.6825H76.4803V13H69.7786Z" fill="black"/>
<path d="M41.0547 24.8118C40.9827 24.1731 40.6858 23.6783 40.1641 23.3274C39.6423 22.9721 38.9856 22.7944 38.1939 22.7944C37.6271 22.7944 37.1368 22.8844 36.723 23.0643C36.3092 23.2397 35.9876 23.4826 35.7582 23.793C35.5333 24.0988 35.4208 24.4474 35.4208 24.8388C35.4208 25.1671 35.4973 25.4505 35.6502 25.6889C35.8076 25.9273 36.0123 26.1275 36.2642 26.2894C36.5206 26.4469 36.795 26.5795 37.0874 26.6875C37.3797 26.791 37.6609 26.8764 37.9308 26.9439L39.2802 27.2947C39.721 27.4027 40.1731 27.5489 40.6364 27.7333C41.0997 27.9177 41.5292 28.1606 41.9251 28.462C42.3209 28.7634 42.6403 29.1367 42.8832 29.582C43.1306 30.0273 43.2543 30.5604 43.2543 31.1811C43.2543 31.9638 43.0518 32.6587 42.647 33.266C42.2467 33.8732 41.6642 34.3523 40.8995 34.7031C40.1393 35.054 39.2195 35.2294 38.1399 35.2294C37.1054 35.2294 36.2102 35.0652 35.4545 34.7369C34.6989 34.4085 34.1074 33.9429 33.68 33.3402C33.2527 32.733 33.0166 32.0133 32.9716 31.1811H35.0632C35.1037 31.6804 35.2656 32.0965 35.549 32.4293C35.8369 32.7577 36.2035 33.0028 36.6488 33.1648C37.0986 33.3222 37.5911 33.4009 38.1264 33.4009C38.7157 33.4009 39.2397 33.3087 39.6985 33.1243C40.1618 32.9354 40.5262 32.6745 40.7915 32.3416C41.0569 32.0043 41.1896 31.6107 41.1896 31.1609C41.1896 30.7515 41.0727 30.4164 40.8388 30.1555C40.6094 29.8946 40.2968 29.6787 39.9009 29.5078C39.5096 29.3369 39.0665 29.1862 38.5717 29.0558L36.9389 28.6104C35.8324 28.3091 34.9553 27.866 34.3075 27.2812C33.6643 26.6965 33.3427 25.9228 33.3427 24.9602C33.3427 24.1641 33.5586 23.4691 33.9904 22.8754C34.4222 22.2816 35.007 21.8205 35.7447 21.4922C36.4824 21.1593 37.3145 20.9929 38.2411 20.9929C39.1767 20.9929 40.0021 21.1571 40.7173 21.4854C41.437 21.8138 42.0038 22.2659 42.4176 22.8416C42.8314 23.4129 43.0473 24.0696 43.0653 24.8118H41.0547ZM48.1711 28.8466V35H46.1537V21.1818H48.1441V26.3232H48.2723C48.5152 25.7654 48.8863 25.3223 49.3856 24.994C49.8849 24.6656 50.5371 24.5014 51.3423 24.5014C52.053 24.5014 52.6737 24.6476 53.2045 24.94C53.7398 25.2324 54.1536 25.6687 54.446 26.2489C54.7429 26.8247 54.8913 27.5444 54.8913 28.408V35H52.8739V28.6509C52.8739 27.8907 52.6782 27.3015 52.2869 26.8832C51.8956 26.4603 51.3513 26.2489 50.6541 26.2489C50.1773 26.2489 49.75 26.3501 49.3721 26.5526C48.9988 26.755 48.7041 27.0518 48.4882 27.4432C48.2768 27.83 48.1711 28.2978 48.1711 28.8466ZM58.1534 35V24.6364H60.1708V35H58.1534ZM59.1722 23.0373C58.8214 23.0373 58.52 22.9203 58.2681 22.6864C58.0207 22.448 57.897 22.1647 57.897 21.8363C57.897 21.5034 58.0207 21.2201 58.2681 20.9861C58.52 20.7478 58.8214 20.6286 59.1722 20.6286C59.5231 20.6286 59.8222 20.7478 60.0696 20.9861C60.3215 21.2201 60.4474 21.5034 60.4474 21.8363C60.4474 22.1647 60.3215 22.448 60.0696 22.6864C59.8222 22.9203 59.5231 23.0373 59.1722 23.0373ZM63.4548 38.8864V24.6364H65.425V26.3164H65.5937C65.7107 26.1005 65.8793 25.8509 66.0997 25.5675C66.3201 25.2841 66.626 25.0367 67.0173 24.8253C67.4087 24.6094 67.926 24.5014 68.5692 24.5014C69.4058 24.5014 70.1525 24.7128 70.8093 25.1357C71.466 25.5585 71.981 26.168 72.3544 26.9641C72.7322 27.7603 72.9211 28.7184 72.9211 29.8384C72.9211 30.9585 72.7344 31.9188 72.3611 32.7195C71.9878 33.5156 71.475 34.1296 70.8227 34.5614C70.1705 34.9888 69.4261 35.2024 68.5894 35.2024C67.9597 35.2024 67.4447 35.0967 67.0443 34.8853C66.6485 34.6739 66.3381 34.4265 66.1132 34.1431C65.8883 33.8597 65.7151 33.6078 65.5937 33.3874H65.4723V38.8864H63.4548ZM65.4318 29.8182C65.4318 30.5469 65.5375 31.1856 65.7489 31.7344C65.9603 32.2831 66.2662 32.7127 66.6665 33.0231C67.0668 33.329 67.5571 33.4819 68.1374 33.4819C68.7401 33.4819 69.2439 33.3222 69.6487 33.0028C70.0536 32.679 70.3594 32.2404 70.5664 31.6871C70.7778 31.1339 70.8835 30.5109 70.8835 29.8182C70.8835 29.1345 70.78 28.5205 70.5731 27.9762C70.3707 27.4319 70.0648 27.0024 69.6555 26.6875C69.2507 26.3726 68.7446 26.2152 68.1374 26.2152C67.5526 26.2152 67.0578 26.3659 66.653 26.6673C66.2527 26.9686 65.949 27.3892 65.7421 27.929C65.5352 28.4687 65.4318 29.0985 65.4318 29.8182ZM75.7514 38.8864V24.6364H77.7216V26.3164H77.8903C78.0072 26.1005 78.1759 25.8509 78.3963 25.5675C78.6167 25.2841 78.9226 25.0367 79.3139 24.8253C79.7052 24.6094 80.2225 24.5014 80.8658 24.5014C81.7024 24.5014 82.4491 24.7128 83.1058 25.1357C83.7625 25.5585 84.2776 26.168 84.6509 26.9641C85.0288 27.7603 85.2177 28.7184 85.2177 29.8384C85.2177 30.9585 85.031 31.9188 84.6577 32.7195C84.2843 33.5156 83.7715 34.1296 83.1193 34.5614C82.4671 34.9888 81.7226 35.2024 80.886 35.2024C80.2563 35.2024 79.7412 35.0967 79.3409 34.8853C78.9451 34.6739 78.6347 34.4265 78.4098 34.1431C78.1849 33.8597 78.0117 33.6078 77.8903 33.3874H77.7688V38.8864H75.7514ZM77.7283 29.8182C77.7283 30.5469 77.834 31.1856 78.0454 31.7344C78.2569 32.2831 78.5627 32.7127 78.9631 33.0231C79.3634 33.329 79.8537 33.4819 80.4339 33.4819C81.0367 33.4819 81.5405 33.3222 81.9453 33.0028C82.3501 32.679 82.656 32.2404 82.8629 31.6871C83.0743 31.1339 83.18 30.5109 83.18 29.8182C83.18 29.1345 83.0766 28.5205 82.8697 27.9762C82.6673 27.4319 82.3614 27.0024 81.9521 26.6875C81.5472 26.3726 81.0412 26.2152 80.4339 26.2152C79.8492 26.2152 79.3544 26.3659 78.9496 26.6673C78.5492 26.9686 78.2456 27.3892 78.0387 27.929C77.8318 28.4687 77.7283 29.0985 77.7283 29.8182ZM88.048 35V24.6364H90.0654V35H88.048ZM89.0668 23.0373C88.7159 23.0373 88.4146 22.9203 88.1627 22.6864C87.9153 22.448 87.7916 22.1647 87.7916 21.8363C87.7916 21.5034 87.9153 21.2201 88.1627 20.9861C88.4146 20.7478 88.7159 20.6286 89.0668 20.6286C89.4176 20.6286 89.7168 20.7478 89.9642 20.9861C90.2161 21.2201 90.342 21.5034 90.342 21.8363C90.342 22.1647 90.2161 22.448 89.9642 22.6864C89.7168 22.9203 89.4176 23.0373 89.0668 23.0373ZM95.3668 28.8466V35H93.3494V24.6364H95.2859V26.3232H95.4141C95.6524 25.7744 96.0258 25.3336 96.5341 25.0007C97.0469 24.6679 97.6923 24.5014 98.4705 24.5014C99.1767 24.5014 99.7952 24.6499 100.326 24.9467C100.857 25.2391 101.268 25.6754 101.561 26.2557C101.853 26.8359 101.999 27.5534 101.999 28.408V35H99.9819V28.6509C99.9819 27.8997 99.7862 27.3127 99.3949 26.8899C99.0035 26.4626 98.466 26.2489 97.7823 26.2489C97.3145 26.2489 96.8984 26.3501 96.5341 26.5526C96.1742 26.755 95.8886 27.0518 95.6772 27.4432C95.4703 27.83 95.3668 28.2978 95.3668 28.8466ZM109.62 39.1023C108.797 39.1023 108.088 38.9943 107.495 38.7784C106.905 38.5625 106.424 38.2769 106.051 37.9215C105.677 37.5662 105.399 37.1771 105.214 36.7543L106.948 36.0391C107.07 36.237 107.232 36.4461 107.434 36.6665C107.641 36.8915 107.92 37.0826 108.271 37.2401C108.626 37.3975 109.083 37.4762 109.64 37.4762C110.405 37.4762 111.037 37.2895 111.536 36.9162C112.036 36.5473 112.285 35.9581 112.285 35.1484V33.1108H112.157C112.036 33.3312 111.86 33.5763 111.631 33.8462C111.406 34.1161 111.095 34.35 110.7 34.5479C110.304 34.7459 109.789 34.8448 109.155 34.8448C108.336 34.8448 107.598 34.6536 106.941 34.2713C106.289 33.8845 105.772 33.3155 105.39 32.5643C105.012 31.8086 104.823 30.8797 104.823 29.7777C104.823 28.6757 105.009 27.7311 105.383 26.9439C105.761 26.1567 106.278 25.554 106.935 25.1357C107.591 24.7128 108.336 24.5014 109.168 24.5014C109.811 24.5014 110.331 24.6094 110.727 24.8253C111.122 25.0367 111.431 25.2841 111.651 25.5675C111.876 25.8509 112.049 26.1005 112.17 26.3164H112.319V24.6364H114.296V35.2294C114.296 36.12 114.089 36.851 113.675 37.4222C113.261 37.9935 112.701 38.4163 111.995 38.6907C111.293 38.9651 110.502 39.1023 109.62 39.1023ZM109.6 33.1715C110.18 33.1715 110.67 33.0366 111.071 32.7667C111.476 32.4923 111.781 32.101 111.988 31.5927C112.2 31.0799 112.305 30.4659 112.305 29.7507C112.305 29.0535 112.202 28.4395 111.995 27.9087C111.788 27.378 111.485 26.9641 111.084 26.6673C110.684 26.3659 110.189 26.2152 109.6 26.2152C108.993 26.2152 108.487 26.3726 108.082 26.6875C107.677 26.9979 107.371 27.4207 107.164 27.956C106.962 28.4912 106.86 29.0895 106.86 29.7507C106.86 30.4299 106.964 31.0259 107.171 31.5387C107.378 32.0515 107.684 32.4518 108.088 32.7397C108.498 33.0276 109.002 33.1715 109.6 33.1715Z" fill="black"/>
</svg>
