<svg width="160" height="40" viewBox="0 0 160 40" fill="none" xmlns="http://www.w3.org/2000/svg">
<rect y="8" width="24" height="24" rx="12" fill="#B2B2B2"/>
<path d="M11.6953 12.5C10.945 12.5003 10.2022 12.6488 9.50951 12.9369C8.81679 13.225 8.1878 13.6471 7.65864 14.179C7.12948 14.7108 6.71056 15.3419 6.42594 16.0361C6.14131 16.7302 5.99658 17.4738 6.00006 18.224C6.00006 22.1792 10.0801 25.8056 11.3353 26.7656C11.4406 26.8526 11.573 26.9002 11.7097 26.9002C11.8463 26.9002 11.9787 26.8526 12.0841 26.7656C13.3417 25.7768 17.3881 22.1792 17.3881 18.224C17.3915 17.474 17.2469 16.7306 16.9624 16.0366C16.6779 15.3426 16.2592 14.7116 15.7303 14.1798C15.2014 13.648 14.5727 13.2259 13.8803 12.9376C13.1878 12.6493 12.4453 12.5006 11.6953 12.5ZM11.6953 20.5904C11.2206 20.5904 10.7566 20.4496 10.3619 20.1859C9.96721 19.9222 9.6596 19.5474 9.47795 19.1088C9.2963 18.6703 9.24877 18.1877 9.34138 17.7222C9.43398 17.2566 9.66256 16.829 9.9982 16.4933C10.3339 16.1577 10.7615 15.9291 11.227 15.8365C11.6926 15.7439 12.1752 15.7914 12.6137 15.9731C13.0522 16.1547 13.4271 16.4624 13.6908 16.857C13.9545 17.2517 14.0953 17.7157 14.0953 18.1904C14.0953 18.8269 13.8424 19.4374 13.3923 19.8875C12.9422 20.3375 12.3318 20.5904 11.6953 20.5904Z" fill="white"/>
<path d="M38.6719 5.4929C38.6188 5.02225 38.4001 4.65767 38.0156 4.39915C37.6312 4.13731 37.1473 4.00639 36.5639 4.00639C36.1463 4.00639 35.785 4.07268 35.4801 4.20526C35.1752 4.33452 34.9382 4.51349 34.7692 4.74219C34.6035 4.96757 34.5206 5.22443 34.5206 5.51278C34.5206 5.75473 34.5769 5.96354 34.6896 6.1392C34.8056 6.31487 34.9564 6.46236 35.142 6.58168C35.331 6.69768 35.5331 6.79545 35.7486 6.875C35.964 6.95123 36.1712 7.0142 36.37 7.06392L37.3643 7.32244C37.6892 7.40199 38.0223 7.50971 38.3636 7.6456C38.705 7.78149 39.0215 7.96046 39.3132 8.18253C39.6049 8.40459 39.8402 8.67969 40.0192 9.00781C40.2015 9.33594 40.2926 9.72869 40.2926 10.1861C40.2926 10.7628 40.1435 11.2749 39.8452 11.7223C39.5502 12.1697 39.121 12.5227 38.5575 12.7812C37.9974 13.0398 37.3196 13.169 36.5241 13.169C35.7618 13.169 35.1023 13.0481 34.5455 12.8061C33.9886 12.5642 33.5528 12.2211 33.2379 11.777C32.9231 11.3295 32.7491 10.7992 32.7159 10.1861H34.2571C34.2869 10.554 34.4063 10.8606 34.6151 11.1058C34.8272 11.3478 35.0973 11.5284 35.4254 11.6477C35.7569 11.7637 36.1198 11.8217 36.5142 11.8217C36.9484 11.8217 37.3345 11.7538 37.6726 11.6179C38.014 11.4787 38.2824 11.2865 38.478 11.0412C38.6735 10.7926 38.7713 10.5026 38.7713 10.1712C38.7713 9.86955 38.6851 9.62263 38.5128 9.4304C38.3438 9.23816 38.1134 9.07907 37.8217 8.95312C37.5334 8.82718 37.2069 8.71615 36.8423 8.62003L35.6392 8.2919C34.8239 8.06984 34.1776 7.74337 33.7003 7.3125C33.2263 6.88163 32.9893 6.31155 32.9893 5.60227C32.9893 5.01562 33.1484 4.50355 33.4666 4.06605C33.7848 3.62855 34.2157 3.28883 34.7592 3.04688C35.3028 2.80161 35.916 2.67898 36.5987 2.67898C37.2881 2.67898 37.8963 2.79995 38.4233 3.0419C38.9536 3.28385 39.3712 3.61695 39.6761 4.04119C39.9811 4.46212 40.1402 4.94602 40.1534 5.4929H38.6719ZM45.9937 5.36364V6.55682H41.8225V5.36364H45.9937ZM42.9411 3.53409H44.4276V10.7578C44.4276 11.0462 44.4707 11.2633 44.5569 11.4091C44.6431 11.5516 44.7541 11.6494 44.89 11.7024C45.0292 11.7521 45.18 11.777 45.3424 11.777C45.4617 11.777 45.5661 11.7687 45.6556 11.7521C45.7451 11.7356 45.8147 11.7223 45.8644 11.7124L46.1329 12.9403C46.0467 12.9735 45.9241 13.0066 45.765 13.0398C45.6059 13.0762 45.407 13.0961 45.1684 13.0994C44.7773 13.1061 44.4127 13.0365 44.0747 12.8906C43.7366 12.7448 43.4631 12.5194 43.2543 12.2145C43.0455 11.9096 42.9411 11.5268 42.9411 11.0661V3.53409ZM51.2672 13.1541C50.5148 13.1541 49.8669 12.9934 49.3233 12.6719C48.7831 12.3471 48.3654 11.8913 48.0705 11.3047C47.7788 10.7147 47.633 10.0237 47.633 9.23153C47.633 8.44934 47.7788 7.75994 48.0705 7.16335C48.3654 6.56676 48.7764 6.10109 49.3034 5.76633C49.8337 5.43158 50.4535 5.2642 51.1628 5.2642C51.5937 5.2642 52.0113 5.33546 52.4156 5.47798C52.82 5.6205 53.1829 5.84422 53.5044 6.14915C53.8259 6.45407 54.0795 6.85014 54.2651 7.33736C54.4507 7.82126 54.5435 8.40956 54.5435 9.10227V9.62926H48.4732V8.51562H53.0868C53.0868 8.12453 53.0073 7.77817 52.8482 7.47656C52.6891 7.17164 52.4654 6.93134 52.177 6.75568C51.892 6.58002 51.5572 6.49219 51.1727 6.49219C50.7551 6.49219 50.3905 6.59493 50.079 6.80043C49.7708 7.0026 49.5321 7.26776 49.3631 7.59588C49.1974 7.92069 49.1145 8.27367 49.1145 8.65483V9.52486C49.1145 10.0353 49.204 10.4695 49.383 10.8274C49.5653 11.1854 49.8188 11.4588 50.1436 11.6477C50.4684 11.8333 50.8479 11.9261 51.2821 11.9261C51.5638 11.9261 51.8207 11.8864 52.0527 11.8068C52.2847 11.724 52.4852 11.6013 52.6543 11.4389C52.8233 11.2765 52.9526 11.076 53.0421 10.8374L54.449 11.0909C54.3363 11.5052 54.1342 11.8681 53.8425 12.1797C53.5541 12.4879 53.1912 12.7282 52.7537 12.9006C52.3195 13.0696 51.824 13.1541 51.2672 13.1541ZM56.6128 15.8636V5.36364H58.0645V6.60156H58.1888C58.275 6.44247 58.3993 6.25852 58.5617 6.04972C58.7241 5.84091 58.9495 5.65862 59.2378 5.50284C59.5262 5.34375 59.9073 5.2642 60.3813 5.2642C60.9977 5.2642 61.5479 5.41998 62.0318 5.73153C62.5157 6.04309 62.8952 6.49219 63.1703 7.07884C63.4487 7.66548 63.5879 8.37145 63.5879 9.19673C63.5879 10.022 63.4504 10.7296 63.1753 11.3196C62.9002 11.9062 62.5224 12.3587 62.0418 12.6768C61.5612 12.9917 61.0127 13.1491 60.3962 13.1491C59.9322 13.1491 59.5527 13.0713 59.2577 12.9155C58.966 12.7597 58.7373 12.5774 58.5716 12.3686C58.4059 12.1598 58.2783 11.9742 58.1888 11.8118H58.0993V15.8636H56.6128ZM58.0695 9.18182C58.0695 9.71875 58.1474 10.1894 58.3031 10.5938C58.4589 10.9981 58.6843 11.3146 58.9793 11.5433C59.2743 11.7687 59.6355 11.8814 60.0631 11.8814C60.5072 11.8814 60.8784 11.7637 61.1767 11.5284C61.475 11.2898 61.7004 10.9666 61.8529 10.5589C62.0086 10.1513 62.0865 9.69223 62.0865 9.18182C62.0865 8.67803 62.0103 8.22562 61.8578 7.82457C61.7087 7.42353 61.4833 7.10701 61.1817 6.875C60.8834 6.64299 60.5105 6.52699 60.0631 6.52699C59.6322 6.52699 59.2676 6.63802 58.9693 6.86009C58.6744 7.08215 58.4506 7.39205 58.2982 7.78977C58.1457 8.1875 58.0695 8.65151 58.0695 9.18182ZM73.6415 2.81818V13H72.1004V4.35938H72.0407L69.6046 5.95028V4.47869L72.1451 2.81818H73.6415Z" fill="#B2B2B2"/>
<path d="M34.6854 35H32.4723L37.445 21.1818H39.8537L44.8264 35H42.6133L38.7067 23.6918H38.5987L34.6854 35ZM35.0565 29.5888H42.2354V31.343H35.0565V29.5888ZM50.9425 35.2024C50.1059 35.2024 49.3592 34.9888 48.7025 34.5614C48.0502 34.1296 47.5374 33.5156 47.1641 32.7195C46.7953 31.9188 46.6108 30.9585 46.6108 29.8384C46.6108 28.7184 46.7975 27.7603 47.1709 26.9641C47.5487 26.168 48.066 25.5585 48.7227 25.1357C49.3794 24.7128 50.1239 24.5014 50.956 24.5014C51.5992 24.5014 52.1165 24.6094 52.5079 24.8253C52.9037 25.0367 53.2096 25.2841 53.4255 25.5675C53.6459 25.8509 53.8168 26.1005 53.9383 26.3164H54.0597V21.1818H56.0771V35H54.1069V33.3874H53.9383C53.8168 33.6078 53.6414 33.8597 53.412 34.1431C53.1871 34.4265 52.8767 34.6739 52.4809 34.8853C52.085 35.0967 51.5722 35.2024 50.9425 35.2024ZM51.3878 33.4819C51.9681 33.4819 52.4584 33.329 52.8587 33.0231C53.2635 32.7127 53.5694 32.2831 53.7763 31.7344C53.9877 31.1856 54.0934 30.5469 54.0934 29.8182C54.0934 29.0985 53.99 28.4687 53.7831 27.929C53.5762 27.3892 53.2725 26.9686 52.8722 26.6673C52.4719 26.3659 51.9771 26.2152 51.3878 26.2152C50.7806 26.2152 50.2745 26.3726 49.8697 26.6875C49.4649 27.0024 49.159 27.4319 48.9521 27.9762C48.7497 28.5205 48.6485 29.1345 48.6485 29.8182C48.6485 30.5109 48.7519 31.1339 48.9588 31.6871C49.1658 32.2404 49.4716 32.679 49.8765 33.0028C50.2858 33.3222 50.7896 33.4819 51.3878 33.4819ZM63.4061 35.2024C62.5694 35.2024 61.8227 34.9888 61.166 34.5614C60.5138 34.1296 60.001 33.5156 59.6277 32.7195C59.2588 31.9188 59.0744 30.9585 59.0744 29.8384C59.0744 28.7184 59.2611 27.7603 59.6344 26.9641C60.0122 26.168 60.5295 25.5585 61.1863 25.1357C61.843 24.7128 62.5874 24.5014 63.4196 24.5014C64.0628 24.5014 64.5801 24.6094 64.9714 24.8253C65.3672 25.0367 65.6731 25.2841 65.889 25.5675C66.1094 25.8509 66.2804 26.1005 66.4018 26.3164H66.5233V21.1818H68.5407V35H66.5705V33.3874H66.4018C66.2804 33.6078 66.1049 33.8597 65.8755 34.1431C65.6506 34.4265 65.3403 34.6739 64.9444 34.8853C64.5486 35.0967 64.0358 35.2024 63.4061 35.2024ZM63.8514 33.4819C64.4316 33.4819 64.9219 33.329 65.3223 33.0231C65.7271 32.7127 66.033 32.2831 66.2399 31.7344C66.4513 31.1856 66.557 30.5469 66.557 29.8182C66.557 29.0985 66.4535 28.4687 66.2466 27.929C66.0397 27.3892 65.7361 26.9686 65.3358 26.6673C64.9354 26.3659 64.4406 26.2152 63.8514 26.2152C63.2441 26.2152 62.7381 26.3726 62.3333 26.6875C61.9284 27.0024 61.6226 27.4319 61.4157 27.9762C61.2132 28.5205 61.112 29.1345 61.112 29.8182C61.112 30.5109 61.2155 31.1339 61.4224 31.6871C61.6293 32.2404 61.9352 32.679 62.34 33.0028C62.7493 33.3222 63.2531 33.4819 63.8514 33.4819ZM71.99 35V24.6364H73.9399V26.2827H74.0479C74.2368 25.7249 74.5697 25.2863 75.0465 24.967C75.5278 24.6431 76.072 24.4812 76.6793 24.4812C76.8052 24.4812 76.9537 24.4857 77.1246 24.4947C77.3 24.5037 77.4372 24.5149 77.5362 24.5284V26.4581C77.4552 26.4356 77.3113 26.4109 77.1044 26.3839C76.8974 26.3524 76.6905 26.3366 76.4836 26.3366C76.0068 26.3366 75.5817 26.4379 75.2084 26.6403C74.8396 26.8382 74.5472 27.1148 74.3313 27.4702C74.1154 27.821 74.0074 28.2214 74.0074 28.6712V35H71.99ZM83.9475 35.2092C82.9265 35.2092 82.0471 34.991 81.3094 34.5547C80.5762 34.1139 80.0094 33.4954 79.6091 32.6992C79.2133 31.8986 79.0154 30.9607 79.0154 29.8857C79.0154 28.8241 79.2133 27.8885 79.6091 27.0788C80.0094 26.2692 80.5672 25.6372 81.2824 25.1829C82.0021 24.7286 82.8432 24.5014 83.8058 24.5014C84.3906 24.5014 84.9573 24.5981 85.5061 24.7915C86.0549 24.985 86.5474 25.2886 86.9837 25.7024C87.4201 26.1162 87.7642 26.6538 88.0161 27.315C88.268 27.9717 88.3939 28.7701 88.3939 29.7102V30.4254H80.1556V28.9141H86.417C86.417 28.3833 86.309 27.9132 86.0931 27.5039C85.8772 27.0901 85.5736 26.764 85.1823 26.5256C84.7954 26.2872 84.3411 26.168 83.8193 26.168C83.2526 26.168 82.7578 26.3074 82.335 26.5863C81.9166 26.8607 81.5928 27.2205 81.3634 27.6658C81.1385 28.1067 81.026 28.5857 81.026 29.103V30.2837C81.026 30.9764 81.1475 31.5657 81.3904 32.0515C81.6377 32.5373 81.9819 32.9084 82.4227 33.1648C82.8635 33.4167 83.3785 33.5426 83.9678 33.5426C84.3501 33.5426 84.6987 33.4886 85.0136 33.3807C85.3284 33.2682 85.6006 33.1018 85.83 32.8814C86.0594 32.661 86.2348 32.3888 86.3563 32.065L88.2657 32.4091C88.1128 32.9714 87.8384 33.4639 87.4426 33.8867C87.0512 34.305 86.5587 34.6312 85.9649 34.8651C85.3757 35.0945 84.7032 35.2092 83.9475 35.2092ZM98.9683 27.1665L97.1398 27.4904C97.0633 27.2565 96.9419 27.0339 96.7754 26.8224C96.6135 26.611 96.3931 26.4379 96.1142 26.3029C95.8353 26.168 95.4867 26.1005 95.0684 26.1005C94.4971 26.1005 94.0203 26.2287 93.638 26.4851C93.2557 26.737 93.0645 27.0631 93.0645 27.4634C93.0645 27.8098 93.1927 28.0887 93.4491 28.3001C93.7055 28.5115 94.1193 28.6847 94.6906 28.8196L96.3369 29.1974C97.2905 29.4179 98.0012 29.7575 98.469 30.2163C98.9368 30.6751 99.1707 31.2711 99.1707 32.0043C99.1707 32.625 98.9907 33.1783 98.6309 33.6641C98.2755 34.1454 97.7785 34.5232 97.1398 34.7976C96.5055 35.072 95.7701 35.2092 94.9335 35.2092C93.7729 35.2092 92.8261 34.9618 92.0929 34.467C91.3597 33.9677 90.9099 33.2592 90.7435 32.3416L92.6934 32.0447C92.8148 32.553 93.0645 32.9376 93.4423 33.1985C93.8202 33.4549 94.3127 33.5831 94.92 33.5831C95.5812 33.5831 96.1097 33.4459 96.5055 33.1715C96.9014 32.8926 97.0993 32.553 97.0993 32.1527C97.0993 31.8288 96.9778 31.5567 96.7349 31.3363C96.4965 31.1159 96.1299 30.9495 95.6352 30.837L93.8809 30.4524C92.9138 30.232 92.1986 29.8812 91.7353 29.3999C91.2765 28.9186 91.0471 28.3091 91.0471 27.5714C91.0471 26.9596 91.218 26.4244 91.5599 25.9656C91.9017 25.5067 92.374 25.1491 92.9768 24.8928C93.5795 24.6319 94.27 24.5014 95.0482 24.5014C96.1682 24.5014 97.0498 24.7443 97.693 25.2301C98.3363 25.7114 98.7613 26.3569 98.9683 27.1665ZM109.725 27.1665L107.896 27.4904C107.82 27.2565 107.698 27.0339 107.532 26.8224C107.37 26.611 107.15 26.4379 106.871 26.3029C106.592 26.168 106.243 26.1005 105.825 26.1005C105.254 26.1005 104.777 26.2287 104.395 26.4851C104.012 26.737 103.821 27.0631 103.821 27.4634C103.821 27.8098 103.949 28.0887 104.206 28.3001C104.462 28.5115 104.876 28.6847 105.447 28.8196L107.093 29.1974C108.047 29.4179 108.758 29.7575 109.225 30.2163C109.693 30.6751 109.927 31.2711 109.927 32.0043C109.927 32.625 109.747 33.1783 109.387 33.6641C109.032 34.1454 108.535 34.5232 107.896 34.7976C107.262 35.072 106.527 35.2092 105.69 35.2092C104.529 35.2092 103.583 34.9618 102.849 34.467C102.116 33.9677 101.666 33.2592 101.5 32.3416L103.45 32.0447C103.571 32.553 103.821 32.9376 104.199 33.1985C104.577 33.4549 105.069 33.5831 105.676 33.5831C106.338 33.5831 106.866 33.4459 107.262 33.1715C107.658 32.8926 107.856 32.553 107.856 32.1527C107.856 31.8288 107.734 31.5567 107.491 31.3363C107.253 31.1159 106.886 30.9495 106.392 30.837L104.637 30.4524C103.67 30.232 102.955 29.8812 102.492 29.3999C102.033 28.9186 101.804 28.3091 101.804 27.5714C101.804 26.9596 101.975 26.4244 102.316 25.9656C102.658 25.5067 103.131 25.1491 103.733 24.8928C104.336 24.6319 105.027 24.5014 105.805 24.5014C106.925 24.5014 107.806 24.7443 108.45 25.2301C109.093 25.7114 109.518 26.3569 109.725 27.1665Z" fill="#B2B2B2"/>
</svg>
